<?xml version="1.0" encoding="utf-8"?>
<!-- Generator: Adobe Illustrator 28.1.0, SVG Export Plug-In . SVG Version: 6.00 Build 0)  -->
<svg version="1.1" id="Layer_1" xmlns="http://www.w3.org/2000/svg" xmlns:xlink="http://www.w3.org/1999/xlink" x="0px" y="0px"
	 viewBox="0 0 1536 1024" style="enable-background:new 0 0 1536 1024;" xml:space="preserve">
<g transform="translate(0.000000,1024.000000) scale(0.100000,-0.100000)">
	<path d="M3784.9,6867c-161-43-315-211-351-382c-19-95-7-218,30-297c37-80,40-83,285-340c286-300,641-677,742-788
		c109-120,167-161,258-184c127-31,254,8,354,109c123,124,156,302,80,445c-28,54-97,126-460,483c-475,468-456,454-517,385
		c-37-43-40-78-8-122c12-18,77-85,145-149l122-116l-132-140l-133-140l-47,53c-26,30-48,59-48,65s11,21,25,34c43,40,103,123,110,151
		c9,38-45,99-88,99c-26,0-45-14-106-77l-76-76l-141,147c-172,179-205,233-212,346c-4,62-1,83,17,122c34,72,85,124,156,159
		c59,29,71,31,137,27c91-6,154-37,223-108c28-28,89-88,137-132l88-80l64,63l64,64l-162,154c-90,85-185,167-212,182
		C4028.9,6881,3896.9,6897,3784.9,6867z M4604.9,5638c-71-90-91-132-79-164c17-44,39-61,79-61c39,0,79,30,151,117l34,41l95-82
		c124-107,154-150,154-219c0-66-29-122-89-175c-72-64-152-65-231-5c-33,25-407,418-412,434c-2,5,54,69,124,143l128,135l47-52l46-51
		L4604.9,5638z"/>
	<path d="M4662.9,6859c-74-22-138-56-185-99l-22-20l26-31c14-17,43-50,64-73l39-43l48,31c64,41,172,73,226,67
		c104-12,213-104,242-206c22-76,15-172-19-237c-14-27-68-99-121-160l-96-109l62-63c73-73,52-81,196,77c112,123,155,204,174,322
		c24,160-24,303-140,417c-37,36-90,78-118,93C4925.9,6886,4793.9,6898,4662.9,6859z"/>
	<path d="M10501.9,6482c-23-13-47-62-47-95c0-41,59-94,104-94c102,0,154,103,87,171c-25,24-37,29-78,29
		C10541.9,6493,10511.9,6488,10501.9,6482z"/>
	<path d="M6794.9,6008v-465h90h90v465v465h-90h-90V6008z"/>
	<path d="M9174.9,6296v-176l-23,21c-42,39-117,66-189,66c-124,0-219-71-268-201c-18-49-21-73-18-153c5-111,28-173,86-234
		c103-107,283-116,385-19l27,27v-42v-42h90h90v465v465h-90h-90V6296z M9102.9,6033c97-59,95-269-2-330c-43-26-120-27-162-1
		c-76,46-107,175-62,261c13,25,38,55,57,67C8978.9,6060,9055.9,6061,9102.9,6033z"/>
	<path d="M11574.9,6008v-465h90h90v93v93l44,43l43,42l85-133l85-133l107-3c58-1,106-1,106,2c0,2-56,88-125,190s-125,190-125,195
		c0,6,52,67,116,136l115,125h-108l-108-1l-115-128l-115-127l-3,268l-2,268h-90h-90V6008z"/>
	<path d="M5904.9,5994v-451h243c269,0,331,9,402,58c66,46,98,102,103,178c7,107-25,168-111,211l-38,19l37,24c47,31,76,87,82,157
		c6,72-18,133-71,178c-70,60-110,68-394,73l-253,4V5994z M6400.9,6250c36-42,34-109-5-148l-29-29h-134h-133v106v105l138-3
		C6375.9,6278,6376.9,6278,6400.9,6250z M6416.9,5899c38-25,53-84,34-130c-23-56-55-66-213-66h-138l3,111l3,111l142-4
		C6365.9,5919,6394.9,5915,6416.9,5899z"/>
	<path d="M9784.9,5988v-445l298,2l297,3l3,83l3,82h-201h-200v360v360h-100h-100V5988z"/>
	<path d="M7357.9,6203c-101-21-186-89-229-182c-26-56-29-73-28-158c0-74,5-105,21-140c31-68,87-125,151-157c52-26,67-28,167-28
		c137,0,191,21,264,101c161,176,91,472-130,549C7520.9,6207,7411.9,6215,7357.9,6203z M7524.9,6031c18-13,42-34,52-48
		c27-37,37-117,22-176c-29-115-166-162-254-87c-127,107-59,333,100,333C7476.9,6053,7501.9,6046,7524.9,6031z"/>
	<path d="M8134.9,6200c-76-22-119-47-165-99c-64-72-88-142-83-248c7-139,64-232,176-287c52-25,67-28,167-28s115,2,167,28
		c72,35,141,111,164,180c11,32,18,81,18,127c-1,185-137,325-327,336C8209.9,6211,8161.9,6208,8134.9,6200z M8315.9,6030
		c98-65,106-243,13-316c-59-47-148-39-205,18c-83,83-73,234,20,297C8191.9,6062,8267.9,6062,8315.9,6030z"/>
	<path d="M11086.9,6177c-29-14-61-37-72-51l-20-26v47v46h-90h-90v-325v-325h90h90v200c0,219,6,250,55,288c34,27,109,30,144,6
		c45-32,51-68,51-289v-205h90h90v233c0,250-8,306-52,362C11319.9,6206,11182.9,6225,11086.9,6177z"/>
	<path d="M10474.9,5868v-325h90h90v325v325h-90h-90V5868z"/>
	<path d="M3582.9,5605c-134-137-152-177-153-332c0-98,2-109,32-171c84-172,279-267,463-225c97,21,168,64,265,158l80,77l-60,60
		c-33,34-62,61-65,61s-37-31-76-69c-78-74-136-108-205-117c-100-14-192,43-229,142c-22,60-27,152-9,187c6,12,56,67,111,123l99,101
		l-69,56c-38,31-71,57-74,57C3689.9,5713,3640.9,5665,3582.9,5605z"/>
	<path d="M4276.9,4906c-126-192-147-261-106-348c29-62,109-115,174-115c68,0,151,57,181,125c38,83,16,154-100,333
		c-40,62-74,112-76,112C4348.9,5013,4315.9,4965,4276.9,4906z M4344.9,4526c0-2-14-3-30-3c-40,0-80,39-80,77c0,15,10,44,21,63l21,34
		l34-84C4329.9,4567,4344.9,4528,4344.9,4526z"/>
</g>
</svg>
