<?xml version="1.0" encoding="utf-8"?>
<!-- Generator: Adobe Illustrator 28.1.0, SVG Export Plug-In . SVG Version: 6.00 Build 0)  -->
<svg version="1.1" id="Layer_1" xmlns="http://www.w3.org/2000/svg" xmlns:xlink="http://www.w3.org/1999/xlink" x="0px" y="0px"
	 viewBox="0 0 265 394" style="enable-background:new 0 0 265 394;" xml:space="preserve">
<style type="text/css">
	.st0{fill:#E32E1D;}
</style>
<path class="st0" d="M74.6,69.5c-16.1,4.3-31.5,21.1-35.1,38.2c-1.9,9.5-0.7,21.8,3,29.7c3.7,8,4,8.3,28.5,34
	c28.6,30,64.1,67.7,74.2,78.8c10.9,12,16.7,16.1,25.8,18.4c12.7,3.1,25.4-0.8,35.4-10.9c12.3-12.4,15.6-30.2,8-44.5
	c-2.8-5.4-9.7-12.6-46-48.3c-47.5-46.8-45.6-45.4-51.7-38.5c-3.7,4.3-4,7.8-0.8,12.2c1.2,1.8,7.7,8.5,14.5,14.9l12.2,11.6l-13.2,14
	l-13.3,14l-4.7-5.3c-2.6-3-4.8-5.9-4.8-6.5c0-0.6,1.1-2.1,2.5-3.4c4.3-4,10.3-12.3,11-15.1c0.9-3.8-4.5-9.9-8.8-9.9
	c-2.6,0-4.5,1.4-10.6,7.7l-7.6,7.6L79,153.5c-17.2-17.9-20.5-23.3-21.2-34.6c-0.4-6.2-0.1-8.3,1.7-12.2c3.4-7.2,8.5-12.4,15.6-15.9
	c5.9-2.9,7.1-3.1,13.7-2.7c9.1,0.6,15.4,3.7,22.3,10.8c2.8,2.8,8.9,8.8,13.7,13.2l8.8,8l6.4-6.3l6.4-6.4L130.2,92
	c-9-8.5-18.5-16.7-21.2-18.2C99,68.1,85.8,66.5,74.6,69.5z M156.6,192.4c-7.1,9-9.1,13.2-7.9,16.4c1.7,4.4,3.9,6.1,7.9,6.1
	c3.9,0,7.9-3,15.1-11.7l3.4-4.1l9.5,8.2c12.4,10.7,15.4,15,15.4,21.9c0,6.6-2.9,12.2-8.9,17.5c-7.2,6.4-15.2,6.5-23.1,0.5
	c-3.3-2.5-40.7-41.8-41.2-43.4c-0.2-0.5,5.4-6.9,12.4-14.3L152,176l4.7,5.2l4.6,5.1L156.6,192.4z"/>
<path class="st0" d="M162.4,70.3c-7.4,2.2-13.8,5.6-18.5,9.9l-2.2,2l2.6,3.1c1.4,1.7,4.3,5,6.4,7.3l3.9,4.3l4.8-3.1
	c6.4-4.1,17.2-7.3,22.6-6.7c10.4,1.2,21.3,10.4,24.2,20.6c2.2,7.6,1.5,17.2-1.9,23.7c-1.4,2.7-6.8,9.9-12.1,16l-9.6,10.9l6.2,6.3
	c7.3,7.3,5.2,8.1,19.6-7.7c11.2-12.3,15.5-20.4,17.4-32.2c2.4-16-2.4-30.3-14-41.7c-3.7-3.6-9-7.8-11.8-9.3
	C188.7,67.6,175.5,66.4,162.4,70.3z"/>
<path class="st0" d="M54.4,195.7c-13.4,13.7-15.2,17.7-15.3,33.2c0,9.8,0.2,10.9,3.2,17.1c8.4,17.2,27.9,26.7,46.3,22.5
	c9.7-2.1,16.8-6.4,26.5-15.8l8-7.7l-6-6c-3.3-3.4-6.2-6.1-6.5-6.1s-3.7,3.1-7.6,6.9c-7.8,7.4-13.6,10.8-20.5,11.7
	c-10,1.4-19.2-4.3-22.9-14.2c-2.2-6-2.7-15.2-0.9-18.7c0.6-1.2,5.6-6.7,11.1-12.3l9.9-10.1l-6.9-5.6c-3.8-3.1-7.1-5.7-7.4-5.7
	C65.1,184.9,60.2,189.7,54.4,195.7z"/>
<path class="st0" d="M123.8,265.6c-12.6,19.2-14.7,26.1-10.6,34.8c2.9,6.2,10.9,11.5,17.4,11.5c6.8,0,15.1-5.7,18.1-12.5
	c3.8-8.3,1.6-15.4-10-33.3c-4-6.2-7.4-11.2-7.6-11.2C131,254.9,127.7,259.7,123.8,265.6z M130.6,303.6c0,0.2-1.4,0.3-3,0.3
	c-4,0-8-3.9-8-7.7c0-1.5,1-4.4,2.1-6.3l2.1-3.4l3.4,8.4C129.1,299.5,130.6,303.4,130.6,303.6z"/>
</svg>
