<?xml version="1.0" encoding="UTF-8"?>
<!DOCTYPE svg PUBLIC "-//W3C//DTD SVG 1.1//EN" "http://www.w3.org/Graphics/SVG/1.1/DTD/svg11.dtd">
<!-- Creator: CorelDRAW 2021 (64-Bit) -->
<svg xmlns="http://www.w3.org/2000/svg" xml:space="preserve" width="512px" height="498px" version="1.1" shape-rendering="geometricPrecision" text-rendering="geometricPrecision" image-rendering="optimizeQuality" fill-rule="evenodd" clip-rule="evenodd"
viewBox="0 0 512 497.84"
 xmlns:xlink="http://www.w3.org/1999/xlink"
 xmlns:xodm="http://www.corel.com/coreldraw/odm/2003">
 <g id="Layer_x0020_1">
  <metadata id="CorelCorpID_0Corel-Layer"/>
  <path fill="#1A1A1A" d="M373.04 447.24c-1.14,0.23 -2.31,0.23 -3.44,0l-93.1 0 0 33.57 97.87 0 0 -33.57 -1.33 0zm-96.32 -17.03l91.31 0c7.35,-7.3 15.35,-14.87 23.52,-22.59 17.13,-16.21 35,-33.12 53.39,-54.29 21.01,-24.19 23.26,-32.57 29.6,-56.28 1.2,-4.46 2.54,-9.46 4.3,-15.67l10.9 -38.38 0.13 -0.43c5.83,-17.07 6.29,-28.36 3.86,-34.87 -0.75,-2 -1.73,-3.33 -2.82,-4.04 -0.89,-0.58 -2.02,-0.79 -3.26,-0.67 -2.84,0.28 -6.05,2.1 -8.97,5.27l-32.41 77.2c-0.31,0.72 -0.7,1.38 -1.16,1.97 -1.92,3.45 -4.51,6.84 -7.83,10.04l-57.52 64.12c-3.12,3.49 -8.48,3.79 -11.97,0.67 -3.49,-3.12 -3.78,-8.48 -0.66,-11.97l57.53 -64.14c0.24,-0.3 0.5,-0.59 0.78,-0.86 5.95,-5.67 7.84,-11.79 6.8,-16.23 -0.32,-1.39 -0.94,-2.54 -1.77,-3.32 -0.78,-0.73 -1.84,-1.21 -3.12,-1.35l0 0c-5.12,-0.53 -12.69,3.23 -21.89,14.12l-0.01 -0.01c-0.26,0.31 -0.55,0.6 -0.86,0.88l-22.28 19.67 -0.13 0.12c-24.14,22.82 -34.49,28.23 -53.41,38.14 -3.95,2.07 -8.31,4.35 -13.66,7.27 -2.11,1.15 -4.2,2.57 -6.25,4.12 -2.18,1.65 -4.23,3.37 -6.23,5.05 -9.98,8.42 -15.23,15.25 -18.25,22.81 -3.13,7.83 -4.26,17.38 -5.79,30.46 -0.61,5.27 -1.1,10.51 -1.45,15.7 -0.17,2.55 -0.31,5.05 -0.42,7.49zm-41.44 0l-91.31 0c-7.35,-7.3 -15.35,-14.87 -23.52,-22.59 -17.13,-16.21 -35,-33.12 -53.38,-54.29 -21.01,-24.19 -23.26,-32.57 -29.61,-56.28 -1.2,-4.46 -2.54,-9.46 -4.3,-15.67l-10.9 -38.38 -0.13 -0.43c-5.83,-17.07 -6.29,-28.36 -3.86,-34.87 0.75,-2 1.73,-3.33 2.82,-4.04 0.9,-0.58 2.02,-0.79 3.26,-0.67 2.84,0.28 6.06,2.1 8.97,5.27l32.42 77.2c0.3,0.72 0.69,1.38 1.15,1.97 1.92,3.45 4.51,6.84 7.84,10.04l57.51 64.12c3.12,3.49 8.48,3.79 11.97,0.67 3.49,-3.12 3.78,-8.48 0.66,-11.97l-57.53 -64.14c-0.23,-0.3 -0.49,-0.59 -0.78,-0.86 -5.95,-5.67 -7.83,-11.79 -6.8,-16.23 0.33,-1.39 0.94,-2.54 1.77,-3.32 0.78,-0.73 1.84,-1.21 3.12,-1.35l0 0c5.12,-0.53 12.69,3.23 21.89,14.12l0.01 -0.01c0.27,0.31 0.55,0.6 0.86,0.88l22.29 19.67 0.12 0.12c24.14,22.82 34.49,28.23 53.41,38.14 3.95,2.07 8.31,4.35 13.66,7.27 2.11,1.15 4.2,2.57 6.25,4.12 2.18,1.65 4.23,3.37 6.23,5.05 9.98,8.42 15.23,15.25 18.25,22.81 3.13,7.83 4.26,17.38 5.79,30.46 0.62,5.27 1.1,10.51 1.45,15.7 0.17,2.55 0.31,5.05 0.42,7.49zm-96.31 17.03c1.13,0.23 2.3,0.23 3.43,0l93.1 0 0 33.57 -97.87 0 0 -33.57 1.34 0zm-16.27 -14.11c-1.31,1.5 -2.1,3.46 -2.1,5.59l0 50.61c0,4.69 3.82,8.51 8.52,8.51l114.9 0c4.7,0 8.51,-3.82 8.51,-8.51l0 -51.07c0,-5.42 -0.35,-11.25 -0.72,-16.67 -0.37,-5.53 -0.87,-11.04 -1.51,-16.5 -1.68,-14.31 -2.92,-24.76 -6.92,-34.78 -4.11,-10.29 -10.76,-19.16 -23.04,-29.53 -2.25,-1.9 -4.56,-3.83 -6.96,-5.65 -2.53,-1.91 -5.28,-3.76 -8.37,-5.45 -5.01,-2.72 -9.68,-5.17 -13.93,-7.39 -17.51,-9.17 -27.08,-14.18 -49.63,-35.49 -0.17,-0.16 -0.36,-0.32 -0.54,-0.47l-21.74 -19.19c-13.29,-15.56 -26.28,-20.7 -36.28,-19.64l-0.03 0.01 0 -0.01c-4.86,0.52 -9.05,2.42 -12.37,5.33l-21.96 -52.32 -0.03 0.02c-0.32,-0.76 -0.75,-1.48 -1.3,-2.14 -6.07,-7.3 -13.79,-11.56 -21.19,-12.29 -5.03,-0.5 -9.91,0.57 -14.16,3.34 -4.05,2.63 -7.37,6.72 -9.47,12.34 -3.65,9.79 -3.57,24.98 3.59,46.04l10.83 38.15c1.57,5.52 2.98,10.78 4.24,15.47 7.08,26.46 9.6,35.83 33.19,63 18.7,21.53 37.02,38.86 54.59,55.48 4.65,4.39 9.24,8.74 13.88,13.21zm266.6 0c1.31,1.5 2.1,3.46 2.1,5.59l0 50.61c0,4.69 -3.81,8.51 -8.51,8.51l-114.9 0c-4.7,0 -8.52,-3.82 -8.52,-8.51l0 -51.07c0,-0.31 0.02,-0.61 0.05,-0.91 0.11,-5.47 0.33,-10.73 0.67,-15.76 0.37,-5.53 0.88,-11.04 1.51,-16.5 1.68,-14.31 2.92,-24.76 6.92,-34.78 4.11,-10.29 10.76,-19.16 23.04,-29.53 2.25,-1.9 4.56,-3.83 6.96,-5.65 2.54,-1.91 5.28,-3.76 8.38,-5.45 5,-2.72 9.67,-5.17 13.92,-7.39 17.51,-9.17 27.08,-14.18 49.63,-35.49 0.18,-0.16 0.36,-0.32 0.55,-0.47l21.74 -19.19c13.28,-15.56 26.27,-20.7 36.27,-19.64l0.03 0.01 0 -0.01c4.86,0.52 9.05,2.42 12.37,5.33l21.97 -52.32 0.03 0.02c0.31,-0.76 0.74,-1.48 1.3,-2.14 6.06,-7.3 13.78,-11.56 21.18,-12.29 5.03,-0.5 9.91,0.57 14.16,3.34 4.05,2.63 7.37,6.72 9.47,12.34 3.66,9.79 3.57,24.98 -3.59,46.04l-10.83 38.15c-1.57,5.52 -2.98,10.78 -4.24,15.47 -7.08,26.46 -9.59,35.83 -33.19,63 -18.7,21.53 -37.02,38.86 -54.59,55.48 -4.65,4.39 -9.24,8.74 -13.88,13.21z"/>
  <path fill="#DE4C3C" d="M255.54 0c49.55,31.41 94.32,46.27 132.74,42.75 6.71,135.72 -43.41,215.87 -132.23,249.32 -85.77,-31.31 -136.5,-108.01 -132.74,-251.38 45.1,2.36 89.35,-7.38 132.23,-40.69zm0.1 22.47c40.8,25.87 80.97,42.81 112.6,39.91 5.53,111.75 -39.05,179.67 -112.18,207.21 -70.63,-25.78 -115.71,-90.85 -112.62,-208.9 40.99,2.14 79.56,-12.86 112.2,-38.22z"/>
  <path fill="#BD2615" d="M243.67 76.21l24.66 0c4.61,0 8.37,3.77 8.37,8.37l0 31.27 31.27 0c4.61,0 8.37,3.77 8.37,8.37l0 24.64c0,4.61 -3.78,8.39 -8.37,8.39l-31.27 0 0 30.55c0,4.61 -3.78,8.37 -8.37,8.37l-24.66 0c-4.61,0 -8.37,-3.77 -8.37,-8.37l0 -30.55 -31.27 0c-4.61,0 -8.37,-3.78 -8.37,-8.39l0 -24.66c0,-4.61 3.77,-8.37 8.37,-8.37l31.27 0 0 -31.25c0,-4.61 3.76,-8.37 8.37,-8.37z"/>
 </g>
</svg>
