<svg xmlns="http://www.w3.org/2000/svg" shape-rendering="geometricPrecision" text-rendering="geometricPrecision" image-rendering="optimizeQuality" fill-rule="evenodd" clip-rule="evenodd" viewBox="0 0 512 321.781"><path d="M14.979 44.079h139.684c-1.19 5.112-2.426 9.579-3.695 13.389-2.407 7.246-4.895 12.379-9.206 18.547H14.979V44.079zm352.795 34.946l-37.879-.265V27.607c0-7.61-3.086-14.502-8.119-19.49A27.328 27.328 0 00302.288 0H27.618C19.23 0 11.666 3.81 6.611 9.75-.571 18.186.012 26.375.012 36.175v212.28c0 15.016 12.385 28.325 27.606 28.325H89.93a7.47 7.47 0 007.484-7.482 7.47 7.47 0 00-7.484-7.482v.042H27.575c-7.044 0-12.6-6.563-12.6-13.403V35.956c0-6.569-1.264-12.346 3.78-17.323 2.275-2.245 5.428-3.665 8.863-3.665h274.67c3.468 0 6.638 1.437 8.924 3.719 2.279 2.283 3.717 5.454 3.717 8.92v234.251h-70.86a7.47 7.47 0 00-7.484 7.483 7.47 7.47 0 007.484 7.48h78.344a7.468 7.468 0 007.482-7.48v-8.499h30.233c3.424-77.871 115.243-88.612 126.617 0h24.56c6.326-75.932-31.165-105.44-88.187-112.113-4.101-17.822-11.925-34.362-20.765-50.711-10.507-19.431-12.953-18.646-34.579-18.993zM166.029 220.402c-27.988 0-50.689 22.703-50.689 50.689s22.701 50.69 50.689 50.69c27.986 0 50.685-22.704 50.685-50.69-.039-27.986-22.699-50.689-50.685-50.689zm0 31.2c-10.737 0-19.491 8.711-19.491 19.489 0 10.737 8.709 19.492 19.491 19.492 10.735 0 19.49-8.709 19.49-19.492-.046-10.778-8.755-19.489-19.49-19.489zm257.258-38.658c-27.986 0-50.685 22.703-50.685 50.69 0 27.986 22.699 50.689 50.685 50.689 27.99 0 50.69-22.703 50.69-50.689 0-27.987-22.7-50.69-50.69-50.69zm-19.489 50.69c0 10.736 8.709 19.489 19.489 19.489 10.783 0 19.489-8.709 19.489-19.489 0-10.783-8.706-19.49-19.489-19.49-10.759 0-19.489 8.729-19.489 19.49zm-32.38-162.975l-22.836-.425v48.579h48.367c-5.966-17.327-14.794-33.212-25.531-48.154zm-196.992-56.58h140.488v31.936H187.381c-4.452-6.383-7.252-12.366-9.661-19.852-1.234-3.839-2.323-7.985-3.294-12.084z"/><path fill="#DC3E38" d="M173.386 72.152c3.298 6.547 8.347 13.641 15.118 21.293l2.916 3.248c8.845 9.844 13.259 19.717 13.259 29.561 0 10.9-3.934 20.245-11.811 28.035-7.906 7.789-17.329 11.702-28.308 11.702-10.949 0-20.354-3.913-28.259-11.702-7.887-7.789-11.831-17.134-11.831-28.035 0-9.844 4.413-19.717 13.259-29.561l2.916-3.248c6.761-7.652 11.811-14.746 15.118-21.293 3.288-6.546 6.233-15.362 8.778-26.399 2.058 8.796 4.767 18.306 8.845 26.399zm-31.723 43.838a4.055 4.055 0 014.413 3.679c.508 5.401 1.692 10.381 3.953 14.678 2.182 4.148 5.43 7.719 10.128 10.469a4.06 4.06 0 011.447 5.558 4.06 4.06 0 01-5.558 1.448c-6.116-3.581-10.352-8.238-13.219-13.689-2.886-5.486-4.264-11.594-4.844-17.73-.204-2.224 1.46-4.209 3.68-4.413z"/></svg>